<svg xmlns:xlink="http://www.w3.org/1999/xlink" class="icon icon-googlepay" role="img" aria-label="googlepay" width="34" height="24" viewBox="0 0 34 24" fill="none" xmlns="http://www.w3.org/2000/svg">
            <title>Google Pay</title>
            <rect x="0.5" y="0.5" width="33" height="23" rx="3.5" fill="#FFFFFF" stroke="#D9D9D9"></rect>
            <path fill-rule="evenodd" clip-rule="evenodd" d="M16.0583 15.5279V12.5933H17.573C18.1936 12.5933 18.7175 12.3853 19.1445 11.9752L19.247 11.8712C20.0271 11.022 19.9759 9.69908 19.1445 8.91343C18.7289 8.49749 18.1595 8.27219 17.573 8.28375H15.1416V15.5279H16.0583ZM16.0585 11.7036V9.17333H17.5961C17.9264 9.17333 18.2396 9.30042 18.4731 9.5315C18.9686 10.0168 18.98 10.8255 18.5016 11.3281C18.2681 11.5765 17.9378 11.7152 17.5961 11.7036H16.0585ZM23.5233 10.9584C23.1304 10.5945 22.5952 10.4096 21.9176 10.4096C21.0464 10.4096 20.3916 10.7331 19.9588 11.3744L20.7674 11.8885C21.0635 11.4495 21.4678 11.2299 21.9802 11.2299C22.3048 11.2299 22.618 11.3512 22.8628 11.5708C23.102 11.7787 23.2386 12.0791 23.2386 12.3969V12.6106C22.8856 12.4142 22.4414 12.3102 21.8948 12.3102C21.2571 12.3102 20.7446 12.4604 20.3631 12.7666C19.9816 13.0728 19.788 13.4771 19.788 13.9913C19.7766 14.4592 19.9759 14.904 20.3289 15.2044C20.6877 15.5279 21.1432 15.6897 21.6784 15.6897C22.3105 15.6897 22.8116 15.4066 23.1931 14.8405H23.2329V15.5279H24.1098V12.472C24.1098 11.8307 23.9162 11.3224 23.5233 10.9584ZM21.0352 14.6152C20.8472 14.4765 20.7333 14.2513 20.7333 14.0086C20.7333 13.7371 20.8586 13.5118 21.1035 13.3327C21.3541 13.1536 21.6673 13.0612 22.0375 13.0612C22.55 13.0554 22.9487 13.171 23.2334 13.4021C23.2334 13.7949 23.0797 14.1357 22.7778 14.4246C22.5045 14.7018 22.1343 14.8578 21.747 14.8578C21.4908 14.8636 21.2402 14.7769 21.0352 14.6152ZM26.08 17.7058L29.1434 10.5714H28.1469L26.7291 14.1299H26.712L25.26 10.5714H24.2636L26.2736 15.2102L25.1348 17.7058H26.08Z" fill="#3C4043"></path>
            <path d="M12.8936 11.9578C12.8936 11.6747 12.8708 11.3917 12.8253 11.1144H8.95898V12.7146H11.174C11.0829 13.2287 10.7868 13.6909 10.354 13.9797V15.0195H11.6751C12.4495 14.2974 12.8936 13.2287 12.8936 11.9578Z" fill="#4285F4"></path>
            <path d="M8.95915 16.0247C10.0638 16.0247 10.9976 15.655 11.6752 15.0196L10.3542 13.9797C9.98408 14.2339 9.51147 14.3783 8.95915 14.3783C7.88866 14.3783 6.9833 13.6447 6.65874 12.6626H5.29785V13.7371C5.99253 15.1409 7.41036 16.0247 8.95915 16.0247Z" fill="#34A853"></path>
            <path d="M6.65846 12.6626C6.48761 12.1485 6.48761 11.5882 6.65846 11.0682V9.99951H5.29736C4.71078 11.1722 4.71078 12.5587 5.29736 13.7314L6.65846 12.6626Z" fill="#FBBC04"></path>
            <path d="M8.95915 9.35247C9.54564 9.34092 10.1094 9.56621 10.5307 9.97637L11.7037 8.78634C10.9578 8.08156 9.97839 7.69451 8.95915 7.70606C7.41036 7.70606 5.99253 8.5957 5.29785 9.99948L6.65874 11.074C6.9833 10.0861 7.88866 9.35247 8.95915 9.35247Z" fill="#EA4335"></path>
        </svg>