<svg width="52" height="43" viewBox="0 0 52 43" fill="none" xmlns="http://www.w3.org/2000/svg">
<path d="M26.0252 42.892C20.513 40.6231 0 30.1416 0 14.6783C0 7.10689 6.31751 0.916631 14.0445 0.916631C19.0784 0.916631 23.5333 3.53084 26 7.45216C27.334 9.54847 28.089 12.0393 28.089 14.6783C28.089 19.0188 24.4898 22.5455 20.06 22.5455C17.5682 22.5455 15.3282 21.4358 13.8684 19.6847C13.0629 18.6242 11.5276 18.4023 10.4453 19.2162C9.36301 20.0054 9.13648 21.5097 9.96708 22.5702C10.2691 22.9402 10.5963 23.2854 10.9486 23.6307C13.3902 26.0229 16.6369 27.33 20.0852 27.33C23.5333 27.33 26.7802 26.0229 29.2216 23.6307C31.663 21.2385 32.997 18.057 32.997 14.6783C32.997 10.609 31.663 6.83561 29.3727 3.77747C31.7386 1.97711 34.7338 0.891968 37.9554 0.891968C45.7076 0.891968 51.9999 7.05757 51.9999 14.6536C52.0503 30.1416 31.5372 40.6231 26.0252 42.892Z" fill="#FF274D"/>
</svg>
