<svg width="590" height="123" viewBox="0 0 590 123" fill="none" xmlns="http://www.w3.org/2000/svg">
<path d="M204.13 72.0019C204.13 86.4825 192.085 98.2301 177.237 98.2301C162.39 98.2301 150.344 86.4825 150.344 72.0019C150.344 57.5214 162.39 45.7737 177.237 45.7737C192.085 45.7737 204.13 57.5214 204.13 72.0019ZM194.802 72.0019C194.802 62.5386 186.898 54.87 177.237 54.87C167.534 54.87 159.671 62.5793 159.671 72.0019C159.671 81.4653 167.576 89.1339 177.237 89.1339C186.94 89.1339 194.802 81.4653 194.802 72.0019ZM422.2 72.0019C422.2 86.4825 410.154 98.2301 395.306 98.2301C380.459 98.2301 368.413 86.4825 368.413 72.0019C368.413 57.5214 380.459 45.7737 395.306 45.7737C410.154 45.7737 422.2 57.5214 422.2 72.0019ZM412.872 72.0019C412.872 62.5386 404.968 54.87 395.306 54.87C385.602 54.87 377.741 62.5793 377.741 72.0019C377.741 81.4653 385.645 89.1339 395.306 89.1339C404.968 89.1339 412.872 81.4653 412.872 72.0019ZM308.396 75.6323C308.564 74.4494 308.69 73.2665 308.69 72.0019C308.69 70.1256 308.481 68.2901 308.103 66.5361C305.511 54.666 294.719 45.7737 281.797 45.7737C266.949 45.7737 254.905 57.5214 254.905 72.0019C254.905 86.4825 266.949 98.2301 281.797 98.2301C291.835 98.2301 300.617 92.8459 305.217 84.8509L297.188 80.2415C294.176 85.5443 288.405 89.1339 281.797 89.1339C273.39 89.1339 266.322 83.3416 264.608 75.5915H298.987H308.396V75.6323ZM265.152 66.5361C267.492 59.7649 274.06 54.87 281.797 54.87C289.535 54.87 296.1 59.7649 298.443 66.5361H265.152ZM536.002 75.6323C536.169 74.4494 536.294 73.2665 536.294 72.0019C536.294 70.1256 536.085 68.2901 535.708 66.5361C533.116 54.666 522.326 45.7737 509.402 45.7737C494.555 45.7737 482.509 57.5214 482.509 72.0019C482.509 86.4825 494.555 98.2301 509.402 98.2301C519.44 98.2301 528.222 92.8459 532.824 84.8509L524.792 80.2009C521.782 85.5036 516.01 89.0931 509.402 89.0931C500.995 89.0931 493.926 83.301 492.213 75.5507H526.591H536.002V75.6323ZM492.714 66.5361C495.056 59.7649 501.624 54.87 509.359 54.87C517.097 54.87 523.664 59.7649 526.005 66.5361H492.714ZM580.126 46.2632V75.9994C580.126 83.3825 573.977 89.1748 566.407 89.1748C558.838 89.1748 552.689 83.3825 552.689 75.9994V46.2632H543.363V76.081C543.405 88.4405 553.693 98.271 566.365 98.271C571.51 98.271 576.236 96.5985 580.084 93.8248V97.1696C580.084 104.553 573.936 110.712 566.365 110.712C561.096 110.712 556.495 107.775 554.195 103.492L546.166 108.142C550.096 115.077 557.666 119.808 566.365 119.808C578.871 119.808 589.034 109.855 589.369 97.7406H589.412V76.081V76.0402V46.2632H580.126ZM429.309 46.1V68.1676V68.2084V97.7H438.637V68.2084C438.637 60.8253 444.784 54.8292 452.354 54.8292C459.925 54.8292 466.073 60.8253 466.073 68.2084V97.7H475.398V68.1676C475.358 55.8081 465.069 45.7737 452.396 45.7737C447.251 45.7737 442.525 47.4461 438.677 50.2198V46.1H429.309ZM315.799 28.8457V68.1676V68.2084V97.7H325.126V68.2084C325.126 60.8253 331.274 54.8292 338.843 54.8292C346.415 54.8292 352.562 60.8253 352.562 68.2084V97.7H361.888V68.1676C361.848 55.8081 351.558 45.7737 338.886 45.7737C333.742 45.7737 329.017 47.4461 325.167 50.2198V28.8457H315.799ZM244.867 46.1408L229.517 84.1575L214.168 46.1408H204.13L224.958 97.7H234.075L254.905 46.1408H244.867ZM118.098 88.6037V28.8865H108.771V88.6037V97.7H118.098H146.748V88.6037H118.098Z" fill="white"/>
<path d="M44.906 98.3117C35.7465 94.559 1.66016 77.2232 1.66016 51.6476C1.66016 39.1249 12.1579 28.8865 24.9978 28.8865C33.3627 28.8865 40.7654 33.2103 44.8642 39.6959C47.0809 43.1631 48.3355 47.2829 48.3355 51.6476C48.3355 58.8267 42.3547 64.6596 34.9938 64.6596C30.8532 64.6596 27.1309 62.8242 24.7052 59.9279C23.3667 58.174 20.8154 57.8069 19.017 59.153C17.2186 60.4583 16.8422 62.9465 18.2224 64.7005C18.7243 65.3124 19.268 65.8834 19.8534 66.4545C23.9105 70.4111 29.3056 72.5729 35.0356 72.5729C40.7654 72.5729 46.1607 70.4111 50.2175 66.4545C54.2744 62.4978 56.4911 57.2359 56.4911 51.6476C56.4911 44.9171 54.2744 38.6762 50.4686 33.6182C54.4 30.6405 59.3771 28.8457 64.7304 28.8457C77.6121 28.8457 88.0681 39.0433 88.0681 51.6068C88.1518 77.2232 54.0653 94.559 44.906 98.3117Z" fill="white"/>
</svg>
