<svg width="182" height="28" viewBox="0 0 182 28" fill="none" xmlns="http://www.w3.org/2000/svg">
<path d="M62.3662 13.2843C62.3662 17.7417 58.6559 21.3579 54.0825 21.3579C49.509 21.3579 45.7987 17.7417 45.7987 13.2843C45.7987 8.82693 49.509 5.21076 54.0825 5.21076C58.6559 5.21076 62.3662 8.82693 62.3662 13.2843ZM59.493 13.2843C59.493 10.3713 57.0584 8.01078 54.0825 8.01078C51.0936 8.01078 48.6717 10.3838 48.6717 13.2843C48.6717 16.1973 51.1065 18.5579 54.0825 18.5579C57.0713 18.5579 59.493 16.1973 59.493 13.2843ZM129.538 13.2843C129.538 17.7417 125.827 21.3579 121.254 21.3579C116.68 21.3579 112.97 17.7417 112.97 13.2843C112.97 8.82693 116.68 5.21076 121.254 5.21076C125.827 5.21076 129.538 8.82693 129.538 13.2843ZM126.665 13.2843C126.665 10.3713 124.23 8.01078 121.254 8.01078C118.265 8.01078 115.843 10.3838 115.843 13.2843C115.843 16.1973 118.278 18.5579 121.254 18.5579C124.23 18.5579 126.665 16.1973 126.665 13.2843ZM94.4829 14.4018C94.5348 14.0377 94.5735 13.6736 94.5735 13.2843C94.5735 12.7067 94.5092 12.1417 94.393 11.6018C93.5945 7.94798 90.2702 5.21076 86.2899 5.21076C81.7161 5.21076 78.0063 8.82693 78.0063 13.2843C78.0063 17.7417 81.7161 21.3579 86.2899 21.3579C89.3818 21.3579 92.087 19.7005 93.504 17.2395L91.0305 15.8206C90.1028 17.4529 88.3254 18.5579 86.2899 18.5579C83.7003 18.5579 81.5231 16.7749 80.9951 14.3893H91.5847H94.4829V14.4018ZM81.1626 11.6018C81.8835 9.51752 83.9065 8.01078 86.2899 8.01078C88.6733 8.01078 90.6957 9.51752 91.4173 11.6018H81.1626ZM164.592 14.4018C164.643 14.0377 164.682 13.6736 164.682 13.2843C164.682 12.7067 164.618 12.1417 164.502 11.6018C163.703 7.94798 160.379 5.21076 156.398 5.21076C151.825 5.21076 148.115 8.82693 148.115 13.2843C148.115 17.7417 151.825 21.3579 156.398 21.3579C159.49 21.3579 162.196 19.7005 163.613 17.2395L161.139 15.8081C160.212 17.4404 158.434 18.5453 156.398 18.5453C153.809 18.5453 151.632 16.7624 151.104 14.3767H161.693H164.592V14.4018ZM151.258 11.6018C151.98 9.51752 154.003 8.01078 156.385 8.01078C158.769 8.01078 160.792 9.51752 161.513 11.6018H151.258ZM178.184 5.36144V14.5148C178.184 16.7875 176.289 18.5704 173.958 18.5704C171.626 18.5704 169.732 16.7875 169.732 14.5148V5.36144H166.859V14.5399C166.872 18.3444 170.041 21.3704 173.945 21.3704C175.53 21.3704 176.985 20.8556 178.171 20.0018V21.0314C178.171 23.304 176.277 25.2 173.945 25.2C172.322 25.2 170.905 24.296 170.196 22.9776L167.723 24.409C168.934 26.5435 171.265 28 173.945 28C177.797 28 180.928 24.9363 181.031 21.2072H181.044V14.5399V14.5274V5.36144H178.184ZM131.728 5.31121V12.104V12.1166V21.1947H134.601V12.1166C134.601 9.84393 136.494 7.99821 138.826 7.99821C141.158 7.99821 143.052 9.84393 143.052 12.1166V21.1947H145.924V12.104C145.912 8.29953 142.743 5.21076 138.839 5.21076C137.254 5.21076 135.798 5.72555 134.613 6.57935V5.31121H131.728ZM96.7633 0V12.104V12.1166V21.1947H99.6365V12.1166C99.6365 9.84393 101.53 7.99821 103.862 7.99821C106.194 7.99821 108.088 9.84393 108.088 12.1166V21.1947H110.96V12.104C110.948 8.29953 107.778 5.21076 103.875 5.21076C102.29 5.21076 100.835 5.72555 99.649 6.57935V0H96.7633ZM74.9144 5.32377L70.1863 17.026L65.4581 5.32377H62.3662L68.7818 21.1947H71.5901L78.0063 5.32377H74.9144ZM35.866 18.3947V0.0125559H32.9932V18.3947V21.1947H35.866H44.6909V18.3947H35.866Z" fill="#571DAE"/>
<path d="M13.3209 21.3832C10.4995 20.2281 0 14.8918 0 7.01915C0 3.16442 3.2336 0.0128464 7.18866 0.0128464C9.76526 0.0128464 12.0455 1.34379 13.3081 3.3402C13.9908 4.40747 14.3773 5.67562 14.3773 7.01915C14.3773 9.22901 12.535 11.0245 10.2677 11.0245C8.99226 11.0245 7.84571 10.4595 7.09851 9.56799C6.68623 9.02809 5.90036 8.91511 5.3464 9.32947C4.79244 9.73126 4.67649 10.4972 5.10163 11.0371C5.25622 11.2254 5.4237 11.4012 5.60404 11.577C6.85373 12.7949 8.51557 13.4604 10.2806 13.4604C12.0455 13.4604 13.7074 12.7949 14.957 11.577C16.2067 10.3591 16.8895 8.73934 16.8895 7.01915C16.8895 4.94738 16.2067 3.0263 15.0344 1.46935C16.2453 0.552757 17.7784 0.000289917 19.4274 0.000289917C23.3953 0.000289917 26.616 3.13931 26.616 7.00658C26.6418 14.8918 16.1422 20.2281 13.3209 21.3832Z" fill="#FF274D"/>
</svg>
